<svg width="450" height="450"
     xmlns="http://www.w3.org/2000/svg" xmlns:xlink="http://www.w3.org/1999/xlink">
    <g id="gTiles1">
        <svg width="45" height="45" x="0" y="0">
            <g id="tile1x1" opacity="1" fill="white" stroke="black" stroke-width="1">
                <rect x="0" y="0" width="45" height="45"/>
            </g>
        </svg>
    </g>
    <g id="gTiles2">
        <svg width="45" height="45" x="0" y="45">
            <g id="tile1x2" opacity="1" fill="white" stroke="black" stroke-width="1" >
                <rect x="0" y="0" width="45" height="45"/>
            </g>
        </svg>
        <svg width="45" height="45" x="45" y="0">
            <g id="tile2x1" opacity="1" fill="white" stroke="black" stroke-width="1" >
                <rect x="0" y="0" width="45" height="45"/>
                
            </g>
        </svg>
        <svg width="45" height="45" x="45" y="45">
            <g id="tile2x2" opacity="1" fill="white" stroke="black" stroke-width="1" >
                <rect x="0" y="0" width="45" height="45"/>
            </g>
        </svg>
    </g>
    <g id="gTiles3">
        <svg width="45" height="45" x="0" y="90">
            <g id="tile1x3" opacity="1" fill="white" stroke="black" stroke-width="1" >
                <rect x="0" y="0" width="45" height="45"/>
            </g>
        </svg>
        <svg width="45" height="45" x="45" y="90">
            <g id="tile2x3" opacity="1" fill="white" stroke="black" stroke-width="1" >
                <rect x="0" y="0" width="45" height="45"/>
                
            </g>
        </svg>
        <svg width="45" height="45" x="90" y="0">
            <g id="tile3x1" opacity="1" fill="white" stroke="black" stroke-width="1" >
                <rect x="0" y="0" width="45" height="45"/>
            </g>
        </svg>
        <svg width="45" height="45" x="90" y="45">
            <g id="tile3x2" opacity="1" fill="white" stroke="black" stroke-width="1" >
                <rect x="0" y="0" width="45" height="45"/>
                
            </g>
        </svg>
        <svg width="45" height="45" x="90" y="90">
            <g id="tile3x3" opacity="1" fill="white" stroke="black" stroke-width="1" >
                <rect x="0" y="0" width="45" height="45"/>
            </g>
        </svg>
    </g>
    <g id="gTiles4">
        <svg width="45" height="45" x="0" y="135">
            <g id="tile1x4" opacity="1" fill="white" stroke="black" stroke-width="1" >
                <rect x="0" y="0" width="45" height="45"/>
                
            </g>
        </svg>
        <svg width="45" height="45" x="45" y="135">
            <g id="tile2x4" opacity="1" fill="white" stroke="black" stroke-width="1" >
                <rect x="0" y="0" width="45" height="45"/>
            </g>
        </svg>
        <svg width="45" height="45" x="90" y="135">
            <g id="tile3x4" opacity="1" fill="white" stroke="black" stroke-width="1" >
                <rect x="0" y="0" width="45" height="45"/>
                
            </g>
        </svg>
        <svg width="45" height="45" x="135" y="0">
            <g id="tile4x1" opacity="1" fill="white" stroke="black" stroke-width="1" >
                <rect x="0" y="0" width="45" height="45"/>
                
            </g>
        </svg>
        <svg width="45" height="45" x="135" y="45">
            <g id="tile4x2" opacity="1" fill="white" stroke="black" stroke-width="1" >
                <rect x="0" y="0" width="45" height="45"/>
            </g>
        </svg>
        <svg width="45" height="45" x="135" y="90">
            <g id="tile4x3" opacity="1" fill="white" stroke="black" stroke-width="1" >
                <rect x="0" y="0" width="45" height="45"/>
                
            </g>
        </svg>
        <svg width="45" height="45" x="135" y="135">
            <g id="tile4x4" opacity="1" fill="white" stroke="black" stroke-width="1" >
                <rect x="0" y="0" width="45" height="45"/>
            </g>
        </svg>
    </g>
    <g id="gTiles5">
        <svg width="45" height="45" x="0" y="180">
            <g id="tile1x5" opacity="1" fill="white" stroke="black" stroke-width="1" >
                <rect x="0" y="0" width="45" height="45"/>
            </g>
        </svg>
        <svg width="45" height="45" x="45" y="180">
            <g id="tile2x5" opacity="1" fill="white" stroke="black" stroke-width="1" >
                <rect x="0" y="0" width="45" height="45"/>
                
            </g>
        </svg>
        <svg width="45" height="45" x="90" y="180">
            <g id="tile3x5" opacity="1" fill="white" stroke="black" stroke-width="1" >
                <rect x="0" y="0" width="45" height="45"/>
            </g>
        </svg>
        <svg width="45" height="45" x="135" y="180">
            <g id="tile4x5" opacity="1" fill="white" stroke="black" stroke-width="1" >
                <rect x="0" y="0" width="45" height="45"/>
                
            </g>
        </svg>
        <svg width="45" height="45" x="180" y="0">
            <g id="tile5x1" opacity="1" fill="white" stroke="black" stroke-width="1" >
                <rect x="0" y="0" width="45" height="45"/>
            </g>
        </svg>
        <svg width="45" height="45" x="180" y="45">
            <g id="tile5x2" opacity="1" fill="white" stroke="black" stroke-width="1" >
                <rect x="0" y="0" width="45" height="45"/>
                
            </g>
        </svg>
        <svg width="45" height="45" x="180" y="90">
            <g id="tile5x3" opacity="1" fill="white" stroke="black" stroke-width="1" >
                <rect x="0" y="0" width="45" height="45"/>
            </g>
        </svg>
        <svg width="45" height="45" x="180" y="135">
            <g id="tile5x4" opacity="1" fill="white" stroke="black" stroke-width="1" >
                <rect x="0" y="0" width="45" height="45"/>
                
            </g>
        </svg>
        <svg width="45" height="45" x="180" y="180">
            <g id="tile5x5" opacity="1" fill="white" stroke="black" stroke-width="1" >
                <rect x="0" y="0" width="45" height="45"/>
            </g>
        </svg>
    </g>
    <g id="gTiles6">
        <svg width="45" height="45" x="0" y="225">
            <g id="tile1x6" opacity="1" fill="white" stroke="black" stroke-width="1" >
                <rect x="0" y="0" width="45" height="45"/>
                
            </g>
        </svg>
        <svg width="45" height="45" x="45" y="225">
            <g id="tile2x6" opacity="1" fill="white" stroke="black" stroke-width="1" >
                <rect x="0" y="0" width="45" height="45"/>
            </g>
        </svg>
        <svg width="45" height="45" x="90" y="225">
            <g id="tile3x6" opacity="1" fill="white" stroke="black" stroke-width="1" >
                <rect x="0" y="0" width="45" height="45"/>
                
            </g>
        </svg>
        <svg width="45" height="45" x="135" y="225">
            <g id="tile4x6" opacity="1" fill="white" stroke="black" stroke-width="1" >
                <rect x="0" y="0" width="45" height="45"/>
            </g>
        </svg>
        <svg width="45" height="45" x="180" y="225">
            <g id="tile5x6" opacity="1" fill="white" stroke="black" stroke-width="1" >
                <rect x="0" y="0" width="45" height="45"/>
                
            </g>
        </svg>
        <svg width="45" height="45" x="225" y="0">
            <g id="tile6x1" opacity="1" fill="white" stroke="black" stroke-width="1" >
                <rect x="0" y="0" width="45" height="45"/>
                
            </g>
        </svg>
        <svg width="45" height="45" x="225" y="45">
            <g id="tile6x2" opacity="1" fill="white" stroke="black" stroke-width="1" >
                <rect x="0" y="0" width="45" height="45"/>
            </g>
        </svg>
        <svg width="45" height="45" x="225" y="90">
            <g id="tile6x3" opacity="1" fill="white" stroke="black" stroke-width="1" >
                <rect x="0" y="0" width="45" height="45"/>
                
            </g>
        </svg>
        <svg width="45" height="45" x="225" y="135">
            <g id="tile6x4" opacity="1" fill="white" stroke="black" stroke-width="1" >
                <rect x="0" y="0" width="45" height="45"/>
            </g>
        </svg>
        <svg width="45" height="45" x="225" y="180">
            <g id="tile6x5" opacity="1" fill="white" stroke="black" stroke-width="1" >
                <rect x="0" y="0" width="45" height="45"/>
                
            </g>
        </svg>
        <svg width="45" height="45" x="225" y="225">
            <g id="tile6x6" opacity="1" fill="white" stroke="black" stroke-width="1" >
                <rect x="0" y="0" width="45" height="45"/>
            </g>
        </svg>
    </g>
    <g id="gTiles7">
        <svg width="45" height="45" x="0" y="270">
            <g id="tile1x7" opacity="1" fill="white" stroke="black" stroke-width="1" >
                <rect x="0" y="0" width="45" height="45"/>
            </g>
        </svg>
        <svg width="45" height="45" x="45" y="270">
            <g id="tile2x7" opacity="1" fill="white" stroke="black" stroke-width="1" >
                <rect x="0" y="0" width="45" height="45"/>
                
            </g>
        </svg>
        <svg width="45" height="45" x="90" y="270">
            <g id="tile3x7" opacity="1" fill="white" stroke="black" stroke-width="1" >
                <rect x="0" y="0" width="45" height="45"/>
            </g>
        </svg>
        <svg width="45" height="45" x="135" y="270">
            <g id="tile4x7" opacity="1" fill="white" stroke="black" stroke-width="1" >
                <rect x="0" y="0" width="45" height="45"/>
                
            </g>
        </svg>
        <svg width="45" height="45" x="180" y="270">
            <g id="tile5x7" opacity="1" fill="white" stroke="black" stroke-width="1" >
                <rect x="0" y="0" width="45" height="45"/>
            </g>
        </svg>
        <svg width="45" height="45" x="225" y="270">
            <g id="tile6x7" opacity="1" fill="white" stroke="black" stroke-width="1" >
                <rect x="0" y="0" width="45" height="45"/>
                
            </g>
        </svg>
        <svg width="45" height="45" x="270" y="0">
            <g id="tile7x1" opacity="1" fill="white" stroke="black" stroke-width="1" >
                <rect x="0" y="0" width="45" height="45"/>
            </g>
        </svg>
        <svg width="45" height="45" x="270" y="45">
            <g id="tile7x2" opacity="1" fill="white" stroke="black" stroke-width="1" >
                <rect x="0" y="0" width="45" height="45"/>
                
            </g>
        </svg>
        <svg width="45" height="45" x="270" y="90">
            <g id="tile7x3" opacity="1" fill="white" stroke="black" stroke-width="1" >
                <rect x="0" y="0" width="45" height="45"/>
            </g>
        </svg>
        <svg width="45" height="45" x="270" y="135">
            <g id="tile7x4" opacity="1" fill="white" stroke="black" stroke-width="1" >
                <rect x="0" y="0" width="45" height="45"/>
                
            </g>
        </svg>
        <svg width="45" height="45" x="270" y="180">
            <g id="tile7x5" opacity="1" fill="white" stroke="black" stroke-width="1" >
                <rect x="0" y="0" width="45" height="45"/>
            </g>
        </svg>
        <svg width="45" height="45" x="270" y="225">
            <g id="tile7x6" opacity="1" fill="white" stroke="black" stroke-width="1" >
                <rect x="0" y="0" width="45" height="45"/>
                
            </g>
        </svg>
        <svg width="45" height="45" x="270" y="270">
            <g id="tile7x7" opacity="1" fill="white" stroke="black" stroke-width="1" >
                <rect x="0" y="0" width="45" height="45"/>
            </g>
        </svg>
    </g>
    <g id="gTiles8">
        <svg width="45" height="45" x="0" y="315">
            <g id="tile1x8" opacity="1" fill="white" stroke="black" stroke-width="1" >
                <rect x="0" y="0" width="45" height="45"/>

            </g>
        </svg>
        <svg width="45" height="45" x="45" y="315">
            <g id="tile2x8" opacity="1" fill="white" stroke="black" stroke-width="1" >
                <rect x="0" y="0" width="45" height="45"/>
            </g>
        </svg>
        <svg width="45" height="45" x="90" y="315">
            <g id="tile3x8" opacity="1" fill="white" stroke="black" stroke-width="1" >
                <rect x="0" y="0" width="45" height="45"/>

            </g>
        </svg>
        <svg width="45" height="45" x="135" y="315">
            <g id="tile4x8" opacity="1" fill="white" stroke="black" stroke-width="1" >
                <rect x="0" y="0" width="45" height="45"/>
            </g>
        </svg>
        <svg width="45" height="45" x="180" y="315">
            <g id="tile5x8" opacity="1" fill="white" stroke="black" stroke-width="1" >
                <rect x="0" y="0" width="45" height="45"/>

            </g>
        </svg>
        <svg width="45" height="45" x="225" y="315">
            <g id="tile6x8" opacity="1" fill="white" stroke="black" stroke-width="1" >
                <rect x="0" y="0" width="45" height="45"/>
            </g>
        </svg>
        <svg width="45" height="45" x="270" y="315">
            <g id="tile7x8" opacity="1" fill="white" stroke="black" stroke-width="1" >
                <rect x="0" y="0" width="45" height="45"/>

            </g>
        </svg>
        <svg width="45" height="45" x="315" y="0">
            <g id="tile8x1" opacity="1" fill="white" stroke="black" stroke-width="1" >
                <rect x="0" y="0" width="45" height="45"/>

            </g>
        </svg>
        <svg width="45" height="45" x="315" y="45">
            <g id="tile8x2" opacity="1" fill="white" stroke="black" stroke-width="1" >
                <rect x="0" y="0" width="45" height="45"/>
            </g>
        </svg>
        <svg width="45" height="45" x="315" y="90">
            <g id="tile8x3" opacity="1" fill="white" stroke="black" stroke-width="1" >
                <rect x="0" y="0" width="45" height="45"/>

            </g>
        </svg>
        <svg width="45" height="45" x="315" y="135">
            <g id="tile8x4" opacity="1" fill="white" stroke="black" stroke-width="1" >
                <rect x="0" y="0" width="45" height="45"/>
            </g>
        </svg>
        <svg width="45" height="45" x="315" y="180">
            <g id="tile8x5" opacity="1" fill="white" stroke="black" stroke-width="1" >
                <rect x="0" y="0" width="45" height="45"/>

            </g>
        </svg>
        <svg width="45" height="45" x="315" y="225">
            <g id="tile8x6" opacity="1" fill="white" stroke="black" stroke-width="1" >
                <rect x="0" y="0" width="45" height="45"/>
            </g>
        </svg>
        <svg width="45" height="45" x="315" y="270">
            <g id="tile8x7" opacity="1" fill="white" stroke="black" stroke-width="1" >
                <rect x="0" y="0" width="45" height="45"/>

            </g>
        </svg>
        <svg width="45" height="45" x="315" y="315">
            <g id="tile8x8" opacity="1" fill="white" stroke="black" stroke-width="1" >
                <rect x="0" y="0" width="45" height="45"/>
            </g>
        </svg>
    </g>
    <g id="gTiles9">
        <svg width="45" height="45" x="0" y="360">
            <g id="tile1x9" opacity="1" fill="white" stroke="black" stroke-width="1" >
                <rect x="0" y="0" width="45" height="45"/>

            </g>
        </svg>
        <svg width="45" height="45" x="45" y="360">
            <g id="tile2x9" opacity="1" fill="white" stroke="black" stroke-width="1" >
                <rect x="0" y="0" width="45" height="45"/>
            </g>
        </svg>
        <svg width="45" height="45" x="90" y="360">
            <g id="tile3x9" opacity="1" fill="white" stroke="black" stroke-width="1" >
                <rect x="0" y="0" width="45" height="45"/>

            </g>
        </svg>
        <svg width="45" height="45" x="135" y="360">
            <g id="tile4x9" opacity="1" fill="white" stroke="black" stroke-width="1" >
                <rect x="0" y="0" width="45" height="45"/>
            </g>
        </svg>
        <svg width="45" height="45" x="180" y="360">
            <g id="tile5x9" opacity="1" fill="white" stroke="black" stroke-width="1" >
                <rect x="0" y="0" width="45" height="45"/>

            </g>
        </svg>
        <svg width="45" height="45" x="225" y="360">
            <g id="tile6x9" opacity="1" fill="white" stroke="black" stroke-width="1" >
                <rect x="0" y="0" width="45" height="45"/>
            </g>
        </svg>
        <svg width="45" height="45" x="270" y="360">
            <g id="tile7x9" opacity="1" fill="white" stroke="black" stroke-width="1" >
                <rect x="0" y="0" width="45" height="45"/>

            </g>
        </svg>
        <svg width="45" height="45" x="315" y="360">
            <g id="tile8x9" opacity="1" fill="white" stroke="black" stroke-width="1" >
                <rect x="0" y="0" width="45" height="45"/>

            </g>
        </svg>
        <svg width="45" height="45" x="360" y="0">
            <g id="tile9x1" opacity="1" fill="white" stroke="black" stroke-width="1" >
                <rect x="0" y="0" width="45" height="45"/>

            </g>
        </svg>
        <svg width="45" height="45" x="360" y="45">
            <g id="tile9x2" opacity="1" fill="white" stroke="black" stroke-width="1" >
                <rect x="0" y="0" width="45" height="45"/>
            </g>
        </svg>
        <svg width="45" height="45" x="360" y="90">
            <g id="tile9x3" opacity="1" fill="white" stroke="black" stroke-width="1" >
                <rect x="0" y="0" width="45" height="45"/>

            </g>
        </svg>
        <svg width="45" height="45" x="360" y="135">
            <g id="tile9x4" opacity="1" fill="white" stroke="black" stroke-width="1" >
                <rect x="0" y="0" width="45" height="45"/>
            </g>
        </svg>
        <svg width="45" height="45" x="360" y="180">
            <g id="tile9x5" opacity="1" fill="white" stroke="black" stroke-width="1" >
                <rect x="0" y="0" width="45" height="45"/>

            </g>
        </svg>
        <svg width="45" height="45" x="360" y="225">
            <g id="tile9x6" opacity="1" fill="white" stroke="black" stroke-width="1" >
                <rect x="0" y="0" width="45" height="45"/>
            </g>
        </svg>
        <svg width="45" height="45" x="360" y="270">
            <g id="tile9x7" opacity="1" fill="white" stroke="black" stroke-width="1" >
                <rect x="0" y="0" width="45" height="45"/>

            </g>
        </svg>
        <svg width="45" height="45" x="360" y="315">
            <g id="tile9x8" opacity="1" fill="white" stroke="black" stroke-width="1" >
                <rect x="0" y="0" width="45" height="45"/>
            </g>
        </svg>
        <svg width="45" height="45" x="360" y="360">
            <g id="tile9x9" opacity="1" fill="white" stroke="black" stroke-width="1" >
                <rect x="0" y="0" width="45" height="45"/>
            </g>
        </svg>
    </g>
    <g id="gTiles10">
        <svg width="45" height="45" x="0" y="405">
            <g id="tile1x10" opacity="1" fill="white" stroke="black" stroke-width="1" >
                <rect x="0" y="0" width="45" height="45"/>

            </g>
        </svg>
        <svg width="45" height="45" x="45" y="405">
            <g id="tile2x10" opacity="1" fill="white" stroke="black" stroke-width="1" >
                <rect x="0" y="0" width="45" height="45"/>
            </g>
        </svg>
        <svg width="45" height="45" x="90" y="405">
            <g id="tile3x10" opacity="1" fill="white" stroke="black" stroke-width="1" >
                <rect x="0" y="0" width="45" height="45"/>

            </g>
        </svg>
        <svg width="45" height="45" x="135" y="405">
            <g id="tile4x10" opacity="1" fill="white" stroke="black" stroke-width="1" >
                <rect x="0" y="0" width="45" height="45"/>
            </g>
        </svg>
        <svg width="45" height="45" x="180" y="405">
            <g id="tile5x10" opacity="1" fill="white" stroke="black" stroke-width="1" >
                <rect x="0" y="0" width="45" height="45"/>

            </g>
        </svg>
        <svg width="45" height="45" x="225" y="405">
            <g id="tile6x10" opacity="1" fill="white" stroke="black" stroke-width="1" >
                <rect x="0" y="0" width="45" height="45"/>
            </g>
        </svg>
        <svg width="45" height="45" x="270" y="405">
            <g id="tile7x10" opacity="1" fill="white" stroke="black" stroke-width="1" >
                <rect x="0" y="0" width="45" height="45"/>

            </g>
        </svg>
        <svg width="45" height="45" x="315" y="405">
            <g id="tile8x10" opacity="1" fill="white" stroke="black" stroke-width="1" >
                <rect x="0" y="0" width="45" height="45"/>

            </g>
        </svg>
        <svg width="45" height="45" x="360" y="405">
            <g id="tile9x10" opacity="1" fill="white" stroke="black" stroke-width="1" >
                <rect x="0" y="0" width="45" height="45"/>

            </g>
        </svg>
        <svg width="45" height="45" x="405" y="0">
            <g id="tile10x1" opacity="1" fill="white" stroke="black" stroke-width="1" >
                <rect x="0" y="0" width="45" height="45"/>

            </g>
        </svg>
        <svg width="45" height="45" x="405" y="45">
            <g id="tile10x2" opacity="1" fill="white" stroke="black" stroke-width="1" >
                <rect x="0" y="0" width="45" height="45"/>
            </g>
        </svg>
        <svg width="45" height="45" x="405" y="90">
            <g id="tile10x3" opacity="1" fill="white" stroke="black" stroke-width="1" >
                <rect x="0" y="0" width="45" height="45"/>

            </g>
        </svg>
        <svg width="45" height="45" x="405" y="135">
            <g id="tile10x4" opacity="1" fill="white" stroke="black" stroke-width="1" >
                <rect x="0" y="0" width="45" height="45"/>
            </g>
        </svg>
        <svg width="45" height="45" x="405" y="180">
            <g id="tile10x5" opacity="1" fill="white" stroke="black" stroke-width="1" >
                <rect x="0" y="0" width="45" height="45"/>

            </g>
        </svg>
        <svg width="45" height="45" x="405" y="225">
            <g id="tile10x6" opacity="1" fill="white" stroke="black" stroke-width="1" >
                <rect x="0" y="0" width="45" height="45"/>
            </g>
        </svg>
        <svg width="45" height="45" x="405" y="270">
            <g id="tile10x7" opacity="1" fill="white" stroke="black" stroke-width="1" >
                <rect x="0" y="0" width="45" height="45"/>

            </g>
        </svg>
        <svg width="45" height="45" x="405" y="315">
            <g id="tile10x8" opacity="1" fill="white" stroke="black" stroke-width="1" >
                <rect x="0" y="0" width="45" height="45"/>
            </g>
        </svg>
        <svg width="45" height="45" x="405" y="360">
            <g id="tile10x9" opacity="1" fill="white" stroke="black" stroke-width="1" >
                <rect x="0" y="0" width="45" height="45"/>
            </g>
        </svg>
        <svg width="45" height="45" x="405" y="405">
            <g id="tile10x10" opacity="1" fill="white" stroke="black" stroke-width="1">
                <rect x="0" y="0" width="45" height="45"/>
            </g>
        </svg>
    </g>
</svg>
