<svg width="540" height="180"
     xmlns="http://www.w3.org/2000/svg" xmlns:xlink="http://www.w3.org/1999/xlink">
    <g id="gTiles1">
        <svg width="45" height="45" x="0" y="0">
            <g id="tile1x1" opacity="1" fill="lime">
                <rect x="0" y="0" width="45" height="45"/>
            </g>
        </svg>
    </g>
    <g id="gTiles2">
        <svg width="45" height="45" x="0" y="45">
            <g id="tile1x2" opacity="1" fill="lime" >
                <rect x="0" y="0" width="45" height="45"/>
            </g>
        </svg>
        <svg width="45" height="45" x="45" y="0">
            <g id="tile2x1" opacity="1" fill="lime" >
                <rect x="0" y="0" width="45" height="45"/>
                
            </g>
        </svg>
        <svg width="45" height="45" x="45" y="45">
            <g id="tile2x2" opacity="1" fill="lime" >
                <rect x="0" y="0" width="45" height="45"/>
            </g>
        </svg>
    </g>
    <g id="gTiles3">
        <svg width="45" height="45" x="0" y="90">
            <g id="tile1x3" opacity="1" fill="lime" >
                <rect x="0" y="0" width="45" height="45"/>
            </g>
        </svg>
        <svg width="45" height="45" x="45" y="90">
            <g id="tile2x3" opacity="1" fill="lime" >
                <rect x="0" y="0" width="45" height="45"/>
                
            </g>
        </svg>
        <svg width="45" height="45" x="90" y="0">
            <g id="tile3x1" opacity="1" fill="lime" >
                <rect x="0" y="0" width="45" height="45"/>
            </g>
        </svg>
        <svg width="45" height="45" x="90" y="45">
            <g id="tile3x2" opacity="1" fill="lime" >
                <rect x="0" y="0" width="45" height="45"/>
                
            </g>
        </svg>
        <svg width="45" height="45" x="90" y="90">
            <g id="tile3x3" opacity="1" fill="lime" >
                <rect x="0" y="0" width="45" height="45"/>
            </g>
        </svg>
    </g>
    <g id="gTiles4">
        <svg width="45" height="45" x="0" y="135">
            <g id="tile1x4" opacity="1" fill="lime" >
                <rect x="0" y="0" width="45" height="45"/>
                
            </g>
        </svg>
        <svg width="45" height="45" x="45" y="135">
            <g id="tile2x4" opacity="1" fill="lime" >
                <rect x="0" y="0" width="45" height="45"/>
            </g>
        </svg>
        <svg width="45" height="45" x="90" y="135">
            <g id="tile3x4" opacity="1" fill="lime" >
                <rect x="0" y="0" width="45" height="45"/>
                
            </g>
        </svg>
        <svg width="45" height="45" x="135" y="0">
            <g id="tile4x1" opacity="1" fill="lime" >
                <rect x="0" y="0" width="45" height="45"/>
                
            </g>
        </svg>
        <svg width="45" height="45" x="135" y="45">
            <g id="tile4x2" opacity="1" fill="lime" >
                <rect x="0" y="0" width="45" height="45"/>
            </g>
        </svg>
        <svg width="45" height="45" x="135" y="90">
            <g id="tile4x3" opacity="1" fill="lime" >
                <rect x="0" y="0" width="45" height="45"/>
                
            </g>
        </svg>
        <svg width="45" height="45" x="135" y="135">
            <g id="tile4x4" opacity="1" fill="lime" >
                <rect x="0" y="0" width="45" height="45"/>
            </g>
        </svg>
    </g>
    <g id="gTiles5">
        <svg width="45" height="45" x="180" y="0">
            <g id="tile5x1" opacity="1" fill="lime" >
                <rect x="0" y="0" width="45" height="45"/>
            </g>
        </svg>
        <svg width="45" height="45" x="180" y="45">
            <g id="tile5x2" opacity="1" fill="lime" >
                <rect x="0" y="0" width="45" height="45"/>
                
            </g>
        </svg>
        <svg width="45" height="45" x="180" y="90">
            <g id="tile5x3" opacity="1" fill="lime" >
                <rect x="0" y="0" width="45" height="45"/>
            </g>
        </svg>
        <svg width="45" height="45" x="180" y="135">
            <g id="tile5x4" opacity="1" fill="lime" >
                <rect x="0" y="0" width="45" height="45"/>
                
            </g>
        </svg>
    </g>
    <g id="gTiles6">
        <svg width="45" height="45" x="225" y="0">
            <g id="tile6x1" opacity="1" fill="lime" >
                <rect x="0" y="0" width="45" height="45"/>
                
            </g>
        </svg>
        <svg width="45" height="45" x="225" y="45">
            <g id="tile6x2" opacity="1" fill="lime" >
                <rect x="0" y="0" width="45" height="45"/>
            </g>
        </svg>
        <svg width="45" height="45" x="225" y="90">
            <g id="tile6x3" opacity="1" fill="lime" >
                <rect x="0" y="0" width="45" height="45"/>
                
            </g>
        </svg>
        <svg width="45" height="45" x="225" y="135">
            <g id="tile6x4" opacity="1" fill="lime" >
                <rect x="0" y="0" width="45" height="45"/>
            </g>
        </svg>
    </g>
    <g id="gTiles7">
        <svg width="45" height="45" x="270" y="0">
            <g id="tile7x1" opacity="1" fill="lime" >
                <rect x="0" y="0" width="45" height="45"/>
            </g>
        </svg>
        <svg width="45" height="45" x="270" y="45">
            <g id="tile7x2" opacity="1" fill="lime" >
                <rect x="0" y="0" width="45" height="45"/>
                
            </g>
        </svg>
        <svg width="45" height="45" x="270" y="90">
            <g id="tile7x3" opacity="1" fill="lime" >
                <rect x="0" y="0" width="45" height="45"/>
            </g>
        </svg>
        <svg width="45" height="45" x="270" y="135">
            <g id="tile7x4" opacity="1" fill="lime" >
                <rect x="0" y="0" width="45" height="45"/>
                
            </g>
        </svg>
    </g>
    <g id="gTiles8">
        <svg width="45" height="45" x="315" y="0">
            <g id="tile8x1" opacity="1" fill="lime" >
                <rect x="0" y="0" width="45" height="45"/>
            </g>
        </svg>
        <svg width="45" height="45" x="315" y="45">
            <g id="tile8x2" opacity="1" fill="lime" >
                <rect x="0" y="0" width="45" height="45"/>
            </g>
        </svg>
        <svg width="45" height="45" x="315" y="90">
            <g id="tile8x3" opacity="1" fill="lime" >
                <rect x="0" y="0" width="45" height="45"/>

            </g>
        </svg>
        <svg width="45" height="45" x="315" y="135">
            <g id="tile8x4" opacity="1" fill="lime" >
                <rect x="0" y="0" width="45" height="45"/>
            </g>
        </svg>
    </g>
    <g id="gTiles9">
        <svg width="45" height="45" x="360" y="0">
            <g id="tile9x1" opacity="1" fill="lime" >
                <rect x="0" y="0" width="45" height="45"/>
            </g>
        </svg>
        <svg width="45" height="45" x="360" y="45">
            <g id="tile9x2" opacity="1" fill="lime" >
                <rect x="0" y="0" width="45" height="45"/>
            </g>
        </svg>
        <svg width="45" height="45" x="360" y="90">
            <g id="tile9x3" opacity="1" fill="lime" >
                <rect x="0" y="0" width="45" height="45"/>

            </g>
        </svg>
        <svg width="45" height="45" x="360" y="135">
            <g id="tile9x4" opacity="1" fill="lime" >
                <rect x="0" y="0" width="45" height="45"/>
            </g>
        </svg>
    </g>
    <g id="gTiles10">
        <svg width="45" height="45" x="405" y="0">
            <g id="tile10x1" opacity="1" fill="lime" >
                <rect x="0" y="0" width="45" height="45"/>
            </g>
        </svg>
        <svg width="45" height="45" x="405" y="45">
            <g id="tile10x2" opacity="1" fill="lime" >
                <rect x="0" y="0" width="45" height="45"/>
            </g>
        </svg>
        <svg width="45" height="45" x="405" y="90">
            <g id="tile10x3" opacity="1" fill="lime" >
                <rect x="0" y="0" width="45" height="45"/>

            </g>
        </svg>
        <svg width="45" height="45" x="405" y="135">
            <g id="tile10x4" opacity="1" fill="lime" >
                <rect x="0" y="0" width="45" height="45"/>
            </g>
        </svg>
    </g>
    <g id="gTiles11">
        <svg width="45" height="45" x="450" y="0">
            <g id="tile11x1" opacity="1" fill="lime" >
                <rect x="0" y="0" width="45" height="45"/>
            </g>
        </svg>
        <svg width="45" height="45" x="450" y="45">
            <g id="tile11x2" opacity="1" fill="lime" >
                <rect x="0" y="0" width="45" height="45"/>
            </g>
        </svg>
        <svg width="45" height="45" x="450" y="90">
            <g id="tile11x3" opacity="1" fill="lime" >
                <rect x="0" y="0" width="45" height="45"/>

            </g>
        </svg>
        <svg width="45" height="45" x="450" y="135">
            <g id="tile11x4" opacity="1" fill="lime" >
                <rect x="0" y="0" width="45" height="45"/>
            </g>
        </svg>
    </g>
    <g id="gTiles12">
        <svg width="45" height="45" x="495" y="0">
            <g id="tile12x1" opacity="1" fill="lime" >
                <rect x="0" y="0" width="45" height="45"/>
            </g>
        </svg>
        <svg width="45" height="45" x="495" y="45">
            <g id="tile12x2" opacity="1" fill="lime" >
                <rect x="0" y="0" width="45" height="45"/>
            </g>
        </svg>
        <svg width="45" height="45" x="495" y="90">
            <g id="tile12x3" opacity="1" fill="lime" >
                <rect x="0" y="0" width="45" height="45"/>

            </g>
        </svg>
        <svg width="45" height="45" x="495" y="135">
            <g id="tile12x4" opacity="1" fill="lime" >
                <rect x="0" y="0" width="45" height="45"/>
            </g>
        </svg>
    </g>
</svg>
