<?xml version="1.0" encoding="UTF-8" standalone="no"?>
<!-- Created with Inkscape (http://www.inkscape.org/) -->

<svg
   width="800"
   height="200"
   version="1.1"
   id="svg5"
   inkscape:version="1.2.1 (9c6d41e, 2022-07-14)"
   sodipodi:docname="LunarLander.svg"
   xmlns:inkscape="http://www.inkscape.org/namespaces/inkscape"
   xmlns:sodipodi="http://sodipodi.sourceforge.net/DTD/sodipodi-0.dtd"
   xmlns="http://www.w3.org/2000/svg"
   xmlns:svg="http://www.w3.org/2000/svg">
   
   <defs>
    <marker id="arrowhead" markerWidth="10" markerHeight="7"
    refX="0" refY="3.5" orient="auto" fill="white" >
      <polygon points="0 0, 10 3.5, 0 7" />
    </marker>
    <marker id="circlemarker" markerWidth="12" markerHeight="12" refX="6" refY="6"
          markerUnits="userSpaceOnUse">
    <circle cx="6" cy="6" r="2"
            fill="white" stroke="context-stroke" stroke-width="2"/>
  </marker>
  </defs>

  <rect style="fill:blue" width="800" height="200" x="0" y="0"/>

    <rect id="lander" transform="rotate(0, 350, 10)" fill="white" visibility="visible" width="60" height="20" x="350" y="10"/>
    <rect id="lander_left" transform="rotate(0, 350, 10)" fill="white" visibility="visible" width="10" height="25" x="365" y="20"/>
    <rect id="lander_right" transform="rotate(0, 350, 10)" fill="white" visibility="visible" width="10" height="25" x="385" y="20"/>

    <polygon id="surface1" fill="lightgray" points="0 200, 0 135, 800 135, 800 200"/>
    <polygon id="surface2" fill="lightgray" points="0 200, 0 135, 800 135, 800 200"/>
    <polygon id="surface3" fill="lightgray" points="0 200, 0 135, 800 135, 800 200"/>
    <polygon id="surface4" fill="lightgray" points="0 200, 0 135, 800 135, 800 200"/>
    <polygon id="surface5" fill="lightgray" points="0 200, 0 135, 800 135, 800 200"/>
    <polygon id="surface6" fill="lightgray" points="0 200, 0 135, 800 135, 800 200"/>
    <polygon id="surface7" fill="lightgray" points="0 200, 0 135, 800 135, 800 200"/>
    <polygon id="surface8" fill="lightgray" points="0 200, 0 135, 800 135, 800 200"/>
    <polygon id="surface9" fill="lightgray" points="0 200, 0 135, 800 135, 800 200"/>
    <polygon id="surface10" fill="lightgray" points="0 200, 0 135, 800 135, 800 200"/>

</svg>
